# xmcd CD database file
#
# Track frame offsets:
#	150
#	19725
#	41230
#	60862
#
# Disc length: 1097 seconds
#
# Revision: 0
# Processed by: cddbd v1.5.1PL2 Copyright (c) Steve Scherf et al.
# Submitted via: CDex 1.51
#
DISCID=29044704
DTITLE=ぢ・大黒堂 - 踊れ！ボンボン
DYEAR=1999
DGENRE=J-Pop
TTITLE0=踊れ！ボンボン(ロックバージョン)
TTITLE1=踊れ！ボンボン(ビーチバージョン)
TTITLE2=踊れ！ボンボン(ロックバージョン)カラオケ
TTITLE3=踊れ！ボンボン(ビーチバージョン)カラオケ
EXTD=YEAR: 1999
EXTT0=
EXTT1=
EXTT2=
EXTT3=
PLAYORDER=
